<mxfile host="Electron" agent="Mozilla/5.0 (X11; Linux x86_64) AppleWebKit/537.36 (KHTML, like Gecko) draw.io/26.0.9 Chrome/128.0.6613.186 Electron/32.2.5 Safari/537.36" version="26.0.9">
  <diagram name="Page-1" id="l2izVTyPwMkT2U4JN9Jk">
    <mxGraphModel dx="806" dy="474" grid="1" gridSize="10" guides="1" tooltips="1" connect="1" arrows="1" fold="1" page="1" pageScale="1" pageWidth="850" pageHeight="1100" math="0" shadow="0">
      <root>
        <mxCell id="0" />
        <mxCell id="1" parent="0" />
        <mxCell id="JSdAFgyhsa3mYer9gAd3-74" value="" style="rounded=1;whiteSpace=wrap;html=1;dashed=1;dashPattern=1 2;fillColor=none;" vertex="1" parent="1">
          <mxGeometry x="34" y="120" width="140" height="250" as="geometry" />
        </mxCell>
        <mxCell id="JSdAFgyhsa3mYer9gAd3-60" value="" style="group" vertex="1" connectable="0" parent="1">
          <mxGeometry x="40" y="30" width="50" height="50" as="geometry" />
        </mxCell>
        <mxCell id="JSdAFgyhsa3mYer9gAd3-61" value="" style="whiteSpace=wrap;html=1;aspect=fixed;strokeColor=#82b366;fillColor=none;container=0;" vertex="1" parent="JSdAFgyhsa3mYer9gAd3-60">
          <mxGeometry x="5.515813285107072" y="3.6144578313253017" width="42.47176229532445" height="42.47176229532445" as="geometry" />
        </mxCell>
        <mxCell id="JSdAFgyhsa3mYer9gAd3-62" value="" style="shape=image;verticalLabelPosition=bottom;labelBackgroundColor=default;verticalAlign=top;aspect=fixed;imageAspect=0;editableCssRules=.*;image=data:image/svg+xml,PHN2ZyB4bWxucz0iaHR0cDovL3d3dy53My5vcmcvMjAwMC9zdmciIHdpZHRoPSIyNCIgdmlld0JveD0iMCAwIDI0IDI0IiBoZWlnaHQ9IjI0IiBmaWxsPSJub25lIj48cGF0aCBzdHJva2U9IiMwMDAiIGZpbGwtcnVsZT0iZXZlbm9kZCIgZD0ibTE3LjI5OTQgMTAuNDUyNyAxLjkyNzMuMzE1Yy4xNTc5LjAyNTguMjczNi4xNjIxLjI3MzMuMzIxOXYxLjc5MzRjMCAuMTU4Mi0uMTEzNS4yOTM4LS4yNjk3LjMyMTJsLTEuOTI5OS4zMzg4Yy0uMTExOS4zODY4LS4yNjU1Ljc1OTItLjQ1ODkgMS4xMTEzbDEuMTQwOCAxLjU4MzljLjA5MzYuMTI5Ny4wNzg5LjMwODEtLjAzNC40MjEzbC0xLjI2NzkgMS4yNjg4Yy0uMTEyMi4xMTE4LS4yODgzLjEyNzgtLjQxODEuMDM2MmwtMS41OTk2LTEuMTIyMWMtLjM1MjguMTk2My0uNzI3NS4zNTI4LTEuMTE4NS40Njc5bC0uMzQwOCAxLjkyMDdjLS4wMjc0LjE1NTUtLjE2MjguMjY5LS4zMjA5LjI2OWgtMS43OTM3Yy0uMTU5NCAwLS4yOTU0LS4xMTUxLS4zMjEyLS4yNzJsLS4zMTgzLTEuOTExMmMtLjM5MDMtLjExMjgtLjc2Ny0uMjY4My0xLjEyMzQ1LS40NjQzbC0xLjU4ODE4IDEuMTEyM2MtLjEyOTQ2LjA5MS0uMzA1ODkuMDc1My0uNDE3NzUtLjAzNjVsLTEuMjY3OTQtMS4yNjg4Yy0uMTEyNTEtLjExMzItLjEyNzE4LS4yOTA5LS4wMzQ1Ny0uNDIwNGwxLjEyMjE3LTEuNTY5NGMtLjE5Nzk1LS4zNTgxLS4zNTUxNC0uNzM2LS40Njg5Ni0xLjEyODNsLTEuOTAxNTctLjMzNzJjLS4xNTU1Ni0uMDI3Ny0uMjY5MDUtLjE2My0uMjY5MDUtLjMyMTJ2LTEuNzkzNGMwLS4xNTkyLjExNTQ0LS4yOTU1LjI3MjYzLS4zMjE2bDEuOTAxNTgtLjMxNjZjLjExNDQ3LS4zOTMyLjI3MTY1LS43NzExOC40Njg5NS0xLjEyODI1bC0xLjEwODQ2LTEuNTg1NzZjLS4wOTA5OS0uMTI5NDYtLjA3NTMzLS4zMDU1NC4wMzY1Mi0uNDE3MzlsMS4yNjc2MS0xLjI2NzVjLjExMzE3LS4xMTI1LjI5MDI1LS4xMjc1LjQyMDM3LS4wMzQ1N2wxLjU3NTEzIDEuMTI1Yy4zNTM4NC0uMTkzNjkuNzI5NTctLjM0NzkzIDEuMTIwODctLjQ2MDQzbC4zMTE4LTEuOTA4OTFjLjAyNTctLjE1NzgzLjE2Mi0uMjczNTkuMzIxOC0uMjczNTloMS43OTM3Yy4xNTg1IDAgLjI5MzguMTE0MTMuMzIxMi4yN2wuMzM2MiAxLjkxOTM1Yy4zODkxLjExMzE1Ljc2NDEuMjY5MDIgMS4xMTkyLjQ2NTMybDEuNTc5NC0xLjEzNTFjLjEyOTgtLjA5MzU5LjMwNzktLjA3ODkyLjQyMS4wMzM5MWwxLjI2ODMgMS4yNjc1Yy4xMTE5LjExMjE3LjEyNzUuMjg4NTkuMDM2NS40MTgwNGwtMS4xMjUxIDEuNjAzMzdjLjE5MzEuMzUxODUuMzQ3My43MjM2MS40NjAyIDEuMTEwMzF6bS03LjU4MjE1IDEuNTQ3M2MwIDEuMjYwNyAxLjAyMjA1IDIuMjgyNiAyLjI4Mjg1IDIuMjgyNiAxLjI2MDcgMCAyLjI4MjgtMS4wMjE5IDIuMjgyOC0yLjI4MjYgMC0xLjI2MDYtMS4wMjIxLTIuMjgyNTgtMi4yODI4LTIuMjgyNTgtMS4yNjA4IDAtMi4yODI4NSAxLjAyMTk4LTIuMjgyODUgMi4yODI1OHoiIGNsaXAtcnVsZT0iZXZlbm9kZCIvPjwvc3ZnPg==;container=0;" vertex="1" parent="JSdAFgyhsa3mYer9gAd3-60">
          <mxGeometry width="44.126506280856574" height="44.126506280856574" as="geometry" />
        </mxCell>
        <mxCell id="JSdAFgyhsa3mYer9gAd3-63" value="" style="rounded=1;whiteSpace=wrap;html=1;strokeColor=none;arcSize=50;container=0;" vertex="1" parent="JSdAFgyhsa3mYer9gAd3-60">
          <mxGeometry x="27.0660957900204" y="17.289156626506017" width="17.060410490836173" height="23.66265060240964" as="geometry" />
        </mxCell>
        <mxCell id="JSdAFgyhsa3mYer9gAd3-64" value="" style="shape=image;verticalLabelPosition=bottom;labelBackgroundColor=default;verticalAlign=top;aspect=fixed;imageAspect=0;editableCssRules=.*;image=data:image/svg+xml,PHN2ZyB4bWxucz0iaHR0cDovL3d3dy53My5vcmcvMjAwMC9zdmciIHdpZHRoPSIzMiIgdmlld0JveD0iMCAwIDMyIDMyIiBoZWlnaHQ9IjMyIj48cGF0aCBkPSJtMjIuMjU4IDEyLjAxOHEtLjg1My0xLjEzOC0xLjgxMy0xLjk5MXQtMS45OTEtMS4zODdxLS4zMi0uMTc4LS42NTgtLjMzOHQtLjY5My0uMjY3LS43MjktLjE2LS42OTMtLjA1M3EtLjA3MSAwLS4yMTMtLjA3MXQtLjMyLS4yMTNsLS42MDQtLjcxMS0uMDcxLS4xMDctLjY3Ni0uODUzcS0uMTQyLS4xNDItLjMwMi0uMjQ5dC0uMjY3LS4xMDdsLS4xNDIuMDcxcS0uMDM2LjM1Ni0uMTc4LjY5M3QtLjMyLjYyMnEtLjIxMy4yNDktLjQ0NC40OTh0LS40NDQuNDI3bC0uOTI0Ljc4MnEtLjE3OC4xMDctLjMwMi4yNDl0LS4xOTYuMzJxLS4xNDIuNjQtLjM1NiAxLjE5MXQtLjQyNyAxLjAxM2wtLjg4OSAxLjY3MXEtLjI4NC40NjItLjU4Ny44NzF0LS41ODcuNzY0cS0uMjQ5LjMyLS40OC42NHQtLjM3My42MDRsLS4yODQuNTY5LS4wNzEuNTMzdi4yMTNsLjAzNi4yNDlxMCAuMjEzLjA3MS40MDl0LjE3OC4zNzNxLjIxMy4zMi42NC4zMmguMjg0bC4yODQtLjE0Mi4yODQtLjI4NC40MjctLjQ5OC4wNzEtLjA3MS4xNDItLjEwNy42MDQtLjM5MS43ODItLjM1NiAxLjI0NC0uNDI3LjY3Ni0uMTc4cS4xMDcgMCAuMjEzLS4wMzZ0LjE0Mi0uMDM2bC4zMi0uMzU2LjM5MS0uNDk4LjQ2Mi0uNjA0Ljg4OS0xLjAzMXEuMjg0LS4yNDkuNTY5LS4zNzN0LjYwNC0uMTI0aC4yMTNxLjQyNyAwIC44MzYuMTZ0Ljc2NC40OC42NzYuNjkzLjUzMy44bC4yMTMuNTY5di41NjlxMCAuODUzLS4yMTMgMS40OTN0LS42MDQgMS4xMDJxLS4zOTEuNDI3LS44NTMuODE4dC0uOTYuNzQ3bC0uOTI0LjQ2MnEtLjIxMy4wNzEtLjQyNy4xNzh0LS4zMi4yMTNsLS43MTEuNDYycS0uMDcxLjEwNy0uMTQyLjI0OXQtLjEwNy4zMmwxLjU2NC0uMjg0aDYuNTQycS4xNzggMCAuNTY5LjA1M3QuOTYuMTI0cS4yMTMtLjMyLjM5MS0uODcxdC4zMi0xLjMzM3EuMDM2LS4yMTMuMDcxLS41ODd0LjAzNi0uODcxLjAxOC0uOTA3LjAxOC0uNjkzcTAtMS4zMTYtLjQyNy0yLjU3OHQtMS4zMTYtMi40MzZ6bTMuNDg0IDE1Ljg5M3EwLS41NjktLjIzMS0uOTk2dC0uNzI5LS42NzZxLS4yMTMtLjE0Mi0uNDgtLjI2N3QtLjUxNi0uMTk2LS42MjItLjIxMy0uODM2LS4yNDloLS4xMDdsLS43NDctLjI0OS0uNjc2LS4xNzgtMS42NzEtLjE3OGgtMy43MzNsLTEuODg0LjE3OC0uODE4LjIxMy0uNzQ3LjIxM3EtLjYwNC4xNDItMS4xNzMuMzczdC0xLjAzMS40OHEtLjQ2Mi4yODQtLjcxMS43Mjl0LS4yNDkgMS4wMTNoMTYuOTZ6bS0xOS42NjIgMi42MzF2LS42NGwuMDM2LS43MTFxMC0uODUzLjI0OS0xLjc0Mi4xMDctLjQyNy4yODQtLjkwN3QuMzkxLS45MDdxLjM5MS0uODUzIDEuMTM4LTEuNDkzdDEuODQ5LTEuMTAycTAtLjUzMy4yNDktMS4wMTN0Ljc0Ny0uODcxbDIuNjMxLTEuNzc4IDEuNzQyLTEuMzE2cS4zNTYtLjMyLjU1MS0uNzI5dC4xOTYtLjgzNmwtLjEwNy0uNTMzcS0uMDcxLS4xNDItLjE5Ni0uMjEzdC0uMzM4LS4wNzFsLS4zNTYuMTA3LS4yMTMuMzItLjI4NC4zNTYtLjIxMy4zNTYtLjM5MS40OTgtLjUzMy40MjdxLS4xNDIuMDM2LS4zMi4xMjR0LS4zNTYuMTZxLS4wMzYgMC0uMjEzLjA3MXQtLjQ5OC4xNDJsLTEuMTM4LjM1NnEtLjI4NC4wNzEtLjU1MS4xNnQtLjQ0NC4yMzFxLS4xNzguMTA3LS4zMDIuMjY3dC0uMTI0LjMzOHEtLjAzNi4xNzgtLjA3MS4zMDJsLS4wMzYuMTI0LS4xMDcuMjEzcS0uMTQyLjE0Mi0uNDA5LjMydC0uNjIyLjM5MXEtLjMyLjE0Mi0uNjkzLjIxM3QtLjc2NC4wNzFxLS43MTEgMC0xLjI5OC0uMjY3dC0xLjAxMy0uNzY0cS0uMzkxLS40OTgtLjY0LTEuMTAydC0uMjg0LTEuMjA5di0uMjEzcTAtLjcxMS4xNi0xLjM1MXQuNDgtMS4yMDlxLjE3OC0uMzIuMzU2LS42MjJ0LjM1Ni0uNTE2cS4xNDItLjI0OS4zNTYtLjUxNnQuNDI3LS41MTZsLjY0LS43ODIuNTY5LS43ODJxLjE0Mi0uMjEzLjI0OS0uMzU2dC4xMDctLjIxM3EuMDcxLS4xMDcuMTQyLS4yNjd0LjEwNy0uMzAycS4xMDctLjE3OC4xNzgtLjM1NnQuMTA3LS4yODRxMC0uMTQyLjAzNi0uMzJ0LjAzNi0uMzU2cTAtLjI4NC4xMDctLjUzM3QuMjg0LS40NjJsMS4wMzEtLjg4OS4xNDItLjEwNy4xNzgtLjEwNyAxLjEzOC0uOTk2cS4yNDktLjI4NC40MDktLjYwNHQuMTYtLjYwNGwuMDcxLS40OThxMC0uMjEzLjAxOC0uNDA5dC4wNTMtLjQwOXEuMDcxLS4xNzguMTQyLS4zOTF0LjE3OC0uMzkxcS4xMDctLjIxMy4zMi0uMzM4dC40NjItLjE5NnEuMjEzLjEwNy40OC4zMzh0LjQ4LjUxNmwxLjAzMSAxLjIwOS41NjkuNzExdC42MDQuNjQuNjc2LjQ5OC42NzYuMjg0cS4wMzYgMCAuMTk2LjA1M3QuMzczLjA4OXEuMjQ5LjA3MS41NTEuMTZ0LjYyMi4xOTZxLjcxMS4xNzggMS40NzYuNTY5dDEuNTgyLjkyNHEuODE4LjYwNCAxLjYgMS40NTh0MS41NjQgMS45OTFxLjc4MiAxLjEwMiAxLjE1NiAyLjYzMXQuMzczIDMuNDEzcTAgLjM1Ni0uMDE4LjcxMXQtLjAxOC43MTFxMCAuMzItLjA1My42NHQtLjA4OS41NjlsLS40MjcgMi4wOTgtLjI4NC43MTFxLjk5Ni42NzYgMS41ODIgMS40MjJ0Ljc2NCAxLjYuMjY3IDEuODEzLjA4OSAxLjk5MWwuMDM2LjMyLS4wMzYuMjg0aC0yMi4zNjR6Ii8+PC9zdmc+;imageBackground=none;flipH=1;container=0;" vertex="1" parent="JSdAFgyhsa3mYer9gAd3-60">
          <mxGeometry x="21.19727045466648" y="13.391566265060236" width="28.80272954533351" height="28.80272954533351" as="geometry" />
        </mxCell>
        <mxCell id="JSdAFgyhsa3mYer9gAd3-65" value="" style="endArrow=none;html=1;rounded=0;noJump=1;entryX=0.829;entryY=1.001;entryDx=0;entryDy=0;entryPerimeter=0;strokeWidth=1;exitX=0.75;exitY=1;exitDx=0;exitDy=0;" edge="1" parent="JSdAFgyhsa3mYer9gAd3-60" source="JSdAFgyhsa3mYer9gAd3-64" target="JSdAFgyhsa3mYer9gAd3-64">
          <mxGeometry width="50" height="50" relative="1" as="geometry">
            <mxPoint x="44.126506280856574" y="44.87951807228916" as="sourcePoint" />
            <mxPoint x="26.268451654046974" y="44.847135646221226" as="targetPoint" />
          </mxGeometry>
        </mxCell>
        <mxCell id="JSdAFgyhsa3mYer9gAd3-2" value="Service Mesh" style="points=[];aspect=fixed;html=1;align=center;shadow=0;dashed=0;fillColor=#000000;strokeColor=none;shape=mxgraph.alibaba_cloud.asm_service_mesh;labelPosition=center;verticalLabelPosition=bottom;verticalAlign=top;" vertex="1" parent="1">
          <mxGeometry x="235" y="25.989999999999995" width="43.199999999999996" height="50.099999999999994" as="geometry" />
        </mxCell>
        <mxCell id="JSdAFgyhsa3mYer9gAd3-66" style="edgeStyle=orthogonalEdgeStyle;rounded=0;orthogonalLoop=1;jettySize=auto;html=1;entryX=-0.01;entryY=0.35;entryDx=0;entryDy=0;entryPerimeter=0;exitX=1;exitY=0.25;exitDx=0;exitDy=0;" edge="1" parent="1" source="JSdAFgyhsa3mYer9gAd3-61" target="JSdAFgyhsa3mYer9gAd3-2">
          <mxGeometry relative="1" as="geometry">
            <mxPoint x="375" y="64.99156626506024" as="sourcePoint" />
            <mxPoint x="483.05600000000004" y="79.95660000000001" as="targetPoint" />
          </mxGeometry>
        </mxCell>
        <mxCell id="JSdAFgyhsa3mYer9gAd3-67" value="/services" style="edgeLabel;html=1;align=center;verticalAlign=middle;resizable=0;points=[];" vertex="1" connectable="0" parent="JSdAFgyhsa3mYer9gAd3-66">
          <mxGeometry x="0.2809" y="1" relative="1" as="geometry">
            <mxPoint x="-37" y="-9" as="offset" />
          </mxGeometry>
        </mxCell>
        <mxCell id="JSdAFgyhsa3mYer9gAd3-68" style="edgeStyle=orthogonalEdgeStyle;rounded=0;orthogonalLoop=1;jettySize=auto;html=1;entryX=1;entryY=0.5;entryDx=0;entryDy=0;exitX=-0.029;exitY=0.624;exitDx=0;exitDy=0;exitPerimeter=0;" edge="1" parent="1" source="JSdAFgyhsa3mYer9gAd3-2" target="JSdAFgyhsa3mYer9gAd3-64">
          <mxGeometry relative="1" as="geometry" />
        </mxCell>
        <mxCell id="JSdAFgyhsa3mYer9gAd3-69" value="{endpoints: [...]}" style="edgeLabel;html=1;align=center;verticalAlign=middle;resizable=0;points=[];" vertex="1" connectable="0" parent="JSdAFgyhsa3mYer9gAd3-68">
          <mxGeometry x="0.1629" y="-1" relative="1" as="geometry">
            <mxPoint x="10" y="13" as="offset" />
          </mxGeometry>
        </mxCell>
        <mxCell id="JSdAFgyhsa3mYer9gAd3-73" value="&amp;nbsp;Socket Pool" style="swimlane;whiteSpace=wrap;html=1;collapsible=0;align=left;fontSize=10;" vertex="1" parent="1">
          <mxGeometry x="50" y="130" width="110" height="140" as="geometry" />
        </mxCell>
        <mxCell id="JSdAFgyhsa3mYer9gAd3-76" value="&lt;b&gt;1.&lt;/b&gt;" style="text;html=1;align=center;verticalAlign=middle;whiteSpace=wrap;rounded=0;" vertex="1" parent="1">
          <mxGeometry x="100" y="24" width="30" height="20" as="geometry" />
        </mxCell>
        <mxCell id="JSdAFgyhsa3mYer9gAd3-77" value="&lt;b&gt;2.&lt;/b&gt;" style="text;html=1;align=center;verticalAlign=middle;whiteSpace=wrap;rounded=0;" vertex="1" parent="1">
          <mxGeometry x="100" y="60" width="30" height="20" as="geometry" />
        </mxCell>
        <mxCell id="JSdAFgyhsa3mYer9gAd3-78" value="sock 0" style="rounded=1;whiteSpace=wrap;html=1;" vertex="1" parent="1">
          <mxGeometry x="60" y="160" width="46.8" height="20" as="geometry" />
        </mxCell>
        <mxCell id="JSdAFgyhsa3mYer9gAd3-79" value="sock 2" style="rounded=1;whiteSpace=wrap;html=1;" vertex="1" parent="1">
          <mxGeometry x="60" y="240" width="46.8" height="20" as="geometry" />
        </mxCell>
        <mxCell id="JSdAFgyhsa3mYer9gAd3-80" value="sock 1" style="rounded=1;whiteSpace=wrap;html=1;" vertex="1" parent="1">
          <mxGeometry x="60" y="200" width="46.8" height="20" as="geometry" />
        </mxCell>
        <mxCell id="JSdAFgyhsa3mYer9gAd3-83" style="edgeStyle=orthogonalEdgeStyle;rounded=0;orthogonalLoop=1;jettySize=auto;html=1;entryX=0;entryY=0.75;entryDx=0;entryDy=0;exitX=1;exitY=0.5;exitDx=0;exitDy=0;" edge="1" parent="1" source="JSdAFgyhsa3mYer9gAd3-81" target="JSdAFgyhsa3mYer9gAd3-94">
          <mxGeometry relative="1" as="geometry">
            <mxPoint x="300" y="160" as="targetPoint" />
            <Array as="points">
              <mxPoint x="190" y="320" />
              <mxPoint x="190" y="170" />
            </Array>
          </mxGeometry>
        </mxCell>
        <mxCell id="JSdAFgyhsa3mYer9gAd3-84" value="{type: &quot;act&quot;,&lt;div&gt;action: [1, 0.4, 0.1, 4]}&lt;/div&gt;" style="edgeLabel;html=1;align=center;verticalAlign=middle;resizable=0;points=[];" vertex="1" connectable="0" parent="JSdAFgyhsa3mYer9gAd3-83">
          <mxGeometry x="0.6293" y="-2" relative="1" as="geometry">
            <mxPoint x="-41" y="19" as="offset" />
          </mxGeometry>
        </mxCell>
        <mxCell id="JSdAFgyhsa3mYer9gAd3-115" style="edgeStyle=orthogonalEdgeStyle;rounded=0;orthogonalLoop=1;jettySize=auto;html=1;entryX=0;entryY=0.25;entryDx=0;entryDy=0;exitX=1;exitY=0.25;exitDx=0;exitDy=0;" edge="1" parent="1" source="JSdAFgyhsa3mYer9gAd3-81" target="JSdAFgyhsa3mYer9gAd3-94">
          <mxGeometry relative="1" as="geometry">
            <Array as="points">
              <mxPoint x="180" y="310" />
              <mxPoint x="180" y="160" />
            </Array>
          </mxGeometry>
        </mxCell>
        <mxCell id="JSdAFgyhsa3mYer9gAd3-81" value="Worker 0" style="rounded=1;whiteSpace=wrap;html=1;labelPosition=center;verticalLabelPosition=top;align=left;verticalAlign=bottom;" vertex="1" parent="1">
          <mxGeometry x="50" y="300" width="110" height="60" as="geometry" />
        </mxCell>
        <mxCell id="JSdAFgyhsa3mYer9gAd3-82" value="sock 1" style="rounded=1;whiteSpace=wrap;html=1;" vertex="1" parent="1">
          <mxGeometry x="59.99999999999999" y="310" width="46.8" height="20" as="geometry" />
        </mxCell>
        <mxCell id="JSdAFgyhsa3mYer9gAd3-85" value="&lt;b&gt;4.&lt;/b&gt;" style="text;html=1;align=center;verticalAlign=middle;whiteSpace=wrap;rounded=0;" vertex="1" parent="1">
          <mxGeometry x="199" y="180" width="30" height="10" as="geometry" />
        </mxCell>
        <mxCell id="JSdAFgyhsa3mYer9gAd3-86" value="&lt;b&gt;&lt;font style=&quot;font-size: 15px;&quot;&gt;Dealer&amp;nbsp;&lt;/font&gt;&lt;/b&gt;" style="text;html=1;align=center;verticalAlign=middle;whiteSpace=wrap;rounded=0;" vertex="1" parent="1">
          <mxGeometry x="45" y="100" width="60" height="20" as="geometry" />
        </mxCell>
        <mxCell id="JSdAFgyhsa3mYer9gAd3-88" value="" style="rounded=1;whiteSpace=wrap;html=1;dashed=1;dashPattern=1 2;fillColor=none;" vertex="1" parent="1">
          <mxGeometry x="309.8" y="120" width="136.8" height="250" as="geometry" />
        </mxCell>
        <mxCell id="JSdAFgyhsa3mYer9gAd3-89" value="&lt;b&gt;&lt;font style=&quot;font-size: 15px;&quot;&gt;Router&lt;/font&gt;&lt;/b&gt;" style="text;html=1;align=center;verticalAlign=middle;whiteSpace=wrap;rounded=0;" vertex="1" parent="1">
          <mxGeometry x="313.2" y="100" width="60" height="20" as="geometry" />
        </mxCell>
        <mxCell id="JSdAFgyhsa3mYer9gAd3-91" value="Agent" style="text;html=1;align=center;verticalAlign=middle;whiteSpace=wrap;rounded=0;" vertex="1" parent="1">
          <mxGeometry x="45" y="80" width="45" height="10" as="geometry" />
        </mxCell>
        <mxCell id="JSdAFgyhsa3mYer9gAd3-118" style="edgeStyle=orthogonalEdgeStyle;rounded=0;orthogonalLoop=1;jettySize=auto;html=1;entryX=0.5;entryY=0;entryDx=0;entryDy=0;" edge="1" parent="1" source="JSdAFgyhsa3mYer9gAd3-94" target="JSdAFgyhsa3mYer9gAd3-95">
          <mxGeometry relative="1" as="geometry" />
        </mxCell>
        <mxCell id="JSdAFgyhsa3mYer9gAd3-94" value="sock" style="rounded=1;whiteSpace=wrap;html=1;" vertex="1" parent="1">
          <mxGeometry x="356.6" y="155" width="46.8" height="20" as="geometry" />
        </mxCell>
        <mxCell id="JSdAFgyhsa3mYer9gAd3-95" value="Worker 0" style="rounded=1;whiteSpace=wrap;html=1;labelPosition=center;verticalLabelPosition=top;align=left;verticalAlign=bottom;" vertex="1" parent="1">
          <mxGeometry x="320" y="210" width="120" height="100" as="geometry" />
        </mxCell>
        <mxCell id="JSdAFgyhsa3mYer9gAd3-98" value="" style="group" vertex="1" connectable="0" parent="1">
          <mxGeometry x="329.1" y="215" width="101.80000000000001" height="80" as="geometry" />
        </mxCell>
        <mxCell id="JSdAFgyhsa3mYer9gAd3-96" value="action_buffer:&amp;nbsp;&lt;div&gt;[...,&amp;nbsp;&lt;span style=&quot;background-color: transparent; color: light-dark(rgb(0, 0, 0), rgb(255, 255, 255));&quot;&gt;[1, 0.4, 0.1, 4]&lt;/span&gt;&lt;span style=&quot;background-color: transparent; color: light-dark(rgb(0, 0, 0), rgb(255, 255, 255));&quot;&gt;]&lt;/span&gt;&lt;/div&gt;" style="text;html=1;align=center;verticalAlign=middle;whiteSpace=wrap;rounded=0;" vertex="1" parent="JSdAFgyhsa3mYer9gAd3-98">
          <mxGeometry width="101.8" height="35" as="geometry" />
        </mxCell>
        <mxCell id="JSdAFgyhsa3mYer9gAd3-97" value="...&lt;div&gt;return step()&lt;/div&gt;" style="text;html=1;align=center;verticalAlign=middle;whiteSpace=wrap;rounded=0;" vertex="1" parent="JSdAFgyhsa3mYer9gAd3-98">
          <mxGeometry y="45" width="101.8" height="35" as="geometry" />
        </mxCell>
        <mxCell id="JSdAFgyhsa3mYer9gAd3-100" value="" style="endArrow=classic;html=1;rounded=0;exitX=0.5;exitY=1;exitDx=0;exitDy=0;entryX=1;entryY=0.75;entryDx=0;entryDy=0;edgeStyle=orthogonalEdgeStyle;" edge="1" parent="1" source="JSdAFgyhsa3mYer9gAd3-95" target="JSdAFgyhsa3mYer9gAd3-81">
          <mxGeometry width="50" height="50" relative="1" as="geometry">
            <mxPoint x="270" y="260" as="sourcePoint" />
            <mxPoint x="230" y="330" as="targetPoint" />
          </mxGeometry>
        </mxCell>
        <mxCell id="JSdAFgyhsa3mYer9gAd3-106" value="{&quot;state&quot;: [...],&amp;nbsp;&lt;div&gt;&quot;reward&quot;: 1.04,&amp;nbsp;&lt;div&gt;&quot;done&quot;: ...}&lt;/div&gt;&lt;/div&gt;" style="edgeLabel;html=1;align=center;verticalAlign=middle;resizable=0;points=[];labelBackgroundColor=none;" vertex="1" connectable="0" parent="JSdAFgyhsa3mYer9gAd3-100">
          <mxGeometry x="0.0104" y="1" relative="1" as="geometry">
            <mxPoint x="-29" y="-30" as="offset" />
          </mxGeometry>
        </mxCell>
        <mxCell id="JSdAFgyhsa3mYer9gAd3-101" value="&lt;b&gt;5.&lt;/b&gt;" style="text;html=1;align=center;verticalAlign=middle;whiteSpace=wrap;rounded=0;" vertex="1" parent="1">
          <mxGeometry x="203.05" y="300" width="21.9" height="10" as="geometry" />
        </mxCell>
        <mxCell id="JSdAFgyhsa3mYer9gAd3-109" value="tcp://192.168.0.51:8001" style="text;html=1;align=center;verticalAlign=middle;whiteSpace=wrap;rounded=0;" vertex="1" parent="1">
          <mxGeometry x="317.15" y="125" width="122.1" height="30" as="geometry" />
        </mxCell>
        <mxCell id="JSdAFgyhsa3mYer9gAd3-110" value="http://192.168.0.1:5000" style="text;html=1;align=center;verticalAlign=middle;whiteSpace=wrap;rounded=0;" vertex="1" parent="1">
          <mxGeometry x="169.99999999999997" y="90" width="122.1" height="30" as="geometry" />
        </mxCell>
        <mxCell id="JSdAFgyhsa3mYer9gAd3-111" value="192.168.0.50" style="text;html=1;align=center;verticalAlign=middle;whiteSpace=wrap;rounded=0;" vertex="1" parent="1">
          <mxGeometry x="34" y="370" width="83" height="20" as="geometry" />
        </mxCell>
        <mxCell id="JSdAFgyhsa3mYer9gAd3-112" value="192.168.0.51" style="text;html=1;align=center;verticalAlign=middle;whiteSpace=wrap;rounded=0;" vertex="1" parent="1">
          <mxGeometry x="320" y="370" width="77.9" height="20" as="geometry" />
        </mxCell>
        <mxCell id="JSdAFgyhsa3mYer9gAd3-113" value="" style="group" vertex="1" connectable="0" parent="1">
          <mxGeometry x="350" y="25.99" width="70" height="70.10000000000001" as="geometry" />
        </mxCell>
        <mxCell id="JSdAFgyhsa3mYer9gAd3-8" value="" style="sketch=0;outlineConnect=0;fontColor=#232F3E;gradientColor=none;fillColor=#000000;strokeColor=none;dashed=0;verticalLabelPosition=bottom;verticalAlign=top;align=center;html=1;fontSize=12;fontStyle=0;aspect=fixed;pointerEvents=1;shape=mxgraph.aws4.braket_simulator_3;" vertex="1" parent="JSdAFgyhsa3mYer9gAd3-113">
          <mxGeometry x="10" width="50" height="50" as="geometry" />
        </mxCell>
        <mxCell id="JSdAFgyhsa3mYer9gAd3-93" value="Environment" style="text;html=1;align=center;verticalAlign=middle;whiteSpace=wrap;rounded=0;" vertex="1" parent="JSdAFgyhsa3mYer9gAd3-113">
          <mxGeometry y="50.10000000000001" width="70" height="20" as="geometry" />
        </mxCell>
        <mxCell id="JSdAFgyhsa3mYer9gAd3-119" value="{type: &quot;connect&quot;&lt;span style=&quot;background-color: light-dark(#ffffff, var(--ge-dark-color, #121212)); color: light-dark(rgb(0, 0, 0), rgb(255, 255, 255));&quot;&gt;}&lt;/span&gt;" style="edgeLabel;html=1;align=center;verticalAlign=middle;resizable=0;points=[];" vertex="1" connectable="0" parent="1">
          <mxGeometry x="256.598775510204" y="149" as="geometry">
            <mxPoint as="offset" />
          </mxGeometry>
        </mxCell>
        <mxCell id="JSdAFgyhsa3mYer9gAd3-120" value="&lt;b&gt;3.&lt;/b&gt;" style="text;html=1;align=center;verticalAlign=middle;whiteSpace=wrap;rounded=0;" vertex="1" parent="1">
          <mxGeometry x="199" y="145" width="20" height="10" as="geometry" />
        </mxCell>
        <mxCell id="JSdAFgyhsa3mYer9gAd3-121" value="trajectories: [...]" style="text;html=1;align=center;verticalAlign=middle;whiteSpace=wrap;rounded=0;" vertex="1" parent="1">
          <mxGeometry x="60" y="330" width="92.1" height="20" as="geometry" />
        </mxCell>
      </root>
    </mxGraphModel>
  </diagram>
</mxfile>
